<svg width="25" height="26" viewBox="0 0 25 26" fill="none" xmlns="http://www.w3.org/2000/svg">
<path d="M12.5 0.533569C9.10781 0.533569 8.68125 0.549194 7.34844 0.608569C6.01563 0.671069 5.10781 0.880444 4.3125 1.18982C3.47788 1.50283 2.7221 1.99513 2.09844 2.63201C1.46156 3.25566 0.969259 4.01145 0.65625 4.84607C0.346875 5.63982 0.135938 6.54919 0.075 7.87732C0.015625 9.21326 0 9.63826 0 13.0351C0 16.4289 0.015625 16.8539 0.075 18.1867C0.1375 19.5179 0.346875 20.4258 0.65625 21.2211C0.976562 22.0429 1.40313 22.7398 2.09844 23.4351C2.79219 24.1304 3.48906 24.5586 4.31094 24.8773C5.10781 25.1867 6.01406 25.3976 7.34531 25.4586C8.67969 25.5179 9.10469 25.5336 12.5 25.5336C15.8953 25.5336 16.3188 25.5179 17.6531 25.4586C18.9828 25.3961 19.8938 25.1867 20.6891 24.8773C21.5231 24.5641 22.2784 24.0718 22.9016 23.4351C23.5969 22.7398 24.0234 22.0429 24.3437 21.2211C24.6516 20.4258 24.8625 19.5179 24.925 18.1867C24.9844 16.8539 25 16.4289 25 13.0336C25 9.63826 24.9844 9.21326 24.925 7.87888C24.8625 6.54919 24.6516 5.63982 24.3437 4.84607C24.0307 4.01145 23.5384 3.25566 22.9016 2.63201C22.2779 1.99513 21.5221 1.50283 20.6875 1.18982C19.8906 0.880444 18.9812 0.669507 17.6516 0.608569C16.3172 0.549194 15.8938 0.533569 12.4969 0.533569H12.5ZM11.3797 2.78669H12.5016C15.8391 2.78669 16.2344 2.79763 17.5516 2.85857C18.7703 2.91326 19.4328 3.11794 19.8734 3.28826C20.4562 3.51482 20.8734 3.78669 21.3109 4.22419C21.7484 4.66169 22.0188 5.07732 22.2453 5.66169C22.4172 6.10076 22.6203 6.76326 22.675 7.98201C22.7359 9.29919 22.7484 9.69451 22.7484 13.0304C22.7484 16.3664 22.7359 16.7633 22.675 18.0804C22.6203 19.2992 22.4156 19.9601 22.2453 20.4008C22.0435 20.9428 21.7238 21.4332 21.3094 21.8367C20.8719 22.2742 20.4563 22.5445 19.8719 22.7711C19.4344 22.9429 18.7719 23.1461 17.5516 23.2023C16.2344 23.2617 15.8391 23.2758 12.5016 23.2758C9.16406 23.2758 8.76719 23.2617 7.45 23.2023C6.23125 23.1461 5.57031 22.9429 5.12969 22.7711C4.58724 22.5699 4.09625 22.2508 3.69219 21.8367C3.27699 21.4329 2.95676 20.9419 2.75469 20.3992C2.58438 19.9601 2.37969 19.2976 2.325 18.0789C2.26563 16.7617 2.25313 16.3664 2.25313 13.0273C2.25313 9.68826 2.26563 9.29607 2.325 7.97888C2.38125 6.76013 2.58438 6.09763 2.75625 5.65701C2.98281 5.07419 3.25469 4.65701 3.69219 4.21951C4.12969 3.78201 4.54531 3.51169 5.12969 3.28513C5.57031 3.11326 6.23125 2.91013 7.45 2.85388C8.60313 2.80076 9.05 2.78513 11.3797 2.78357V2.78669ZM19.1734 4.86169C18.9765 4.86169 18.7814 4.90049 18.5994 4.97588C18.4174 5.05126 18.2521 5.16175 18.1128 5.30103C17.9735 5.44032 17.863 5.60568 17.7876 5.78767C17.7122 5.96966 17.6734 6.16471 17.6734 6.36169C17.6734 6.55868 17.7122 6.75373 17.7876 6.93572C17.863 7.11771 17.9735 7.28307 18.1128 7.42235C18.2521 7.56164 18.4174 7.67213 18.5994 7.74751C18.7814 7.8229 18.9765 7.86169 19.1734 7.86169C19.5713 7.86169 19.9528 7.70366 20.2341 7.42235C20.5154 7.14105 20.6734 6.75952 20.6734 6.36169C20.6734 5.96387 20.5154 5.58234 20.2341 5.30103C19.9528 5.01973 19.5713 4.86169 19.1734 4.86169ZM12.5016 6.61482C11.6501 6.60154 10.8045 6.75777 10.014 7.07441C9.22353 7.39106 8.50393 7.86181 7.89711 8.45923C7.29029 9.05666 6.80838 9.76883 6.47944 10.5543C6.1505 11.3397 5.98109 12.1828 5.98109 13.0344C5.98109 13.8859 6.1505 14.729 6.47944 15.5144C6.80838 16.2999 7.29029 17.012 7.89711 17.6095C8.50393 18.2069 9.22353 18.6776 10.014 18.9943C10.8045 19.3109 11.6501 19.4672 12.5016 19.4539C14.1868 19.4276 15.7941 18.7397 16.9765 17.5386C18.159 16.3376 18.8217 14.7198 18.8217 13.0344C18.8217 11.3489 18.159 9.73109 16.9765 8.53005C15.7941 7.32902 14.1868 6.64111 12.5016 6.61482ZM12.5016 8.86638C13.0488 8.86638 13.5907 8.97417 14.0963 9.18359C14.6019 9.39301 15.0613 9.69996 15.4482 10.0869C15.8352 10.4739 16.1421 10.9333 16.3515 11.4389C16.561 11.9444 16.6688 12.4863 16.6688 13.0336C16.6688 13.5808 16.561 14.1227 16.3515 14.6283C16.1421 15.1339 15.8352 15.5933 15.4482 15.9802C15.0613 16.3672 14.6019 16.6741 14.0963 16.8835C13.5907 17.093 13.0488 17.2008 12.5016 17.2008C11.3964 17.2008 10.3364 16.7617 9.55492 15.9802C8.77342 15.1987 8.33438 14.1388 8.33438 13.0336C8.33438 11.9284 8.77342 10.8684 9.55492 10.0869C10.3364 9.30542 11.3964 8.86638 12.5016 8.86638Z" fill="#36312E"/>
</svg>
