<?xml version="1.0" encoding="utf-8"?>
<!-- Generator: Adobe Illustrator 18.0.0, SVG Export Plug-In . SVG Version: 6.00 Build 0)  -->
<!DOCTYPE svg PUBLIC "-//W3C//DTD SVG 1.1//EN" "http://www.w3.org/Graphics/SVG/1.1/DTD/svg11.dtd">
<svg version="1.1" id="Layer_1" xmlns="http://www.w3.org/2000/svg" xmlns:xlink="http://www.w3.org/1999/xlink" x="0px" y="0px"
	 viewBox="70 70 1015 1015" enable-background="new 70 70 1015 1015" xml:space="preserve">
<g transform="translate(70,70)">
	<g>
		<rect x="490" fill="#36312E" width="35" height="35"/>
		<rect x="455" y="35" fill="#36312E" width="35" height="35"/>
		<rect x="525" y="70" fill="#36312E" width="35" height="35"/>
		<polygon fill="#36312E" points="700,70 700,35 700,0 665,0 630,0 595,0 595,35 595,70 630,70 630,35 665,35 665,70 665,105 
			700,105 		"/>
		<rect x="280" y="140" fill="#36312E" width="35" height="35"/>
		<rect x="350" y="140" fill="#36312E" width="35" height="35"/>
		<polygon fill="#36312E" points="420,175 455,175 490,175 490,140 490,105 455,105 420,105 420,70 420,35 455,35 455,0 420,0 
			385,0 350,0 315,0 315,35 280,35 280,70 315,70 350,70 350,35 385,35 385,70 350,70 350,105 385,105 385,140 420,140 		"/>
		<rect x="385" y="175" fill="#36312E" width="35" height="35"/>
		<rect x="280" y="210" fill="#36312E" width="35" height="35"/>
		<rect x="350" y="210" fill="#36312E" width="35" height="35"/>
		<path fill="#36312E" d="M490,245h35v-35h35v35v35h-35v35h35h35h35h35v-35v-35v-35h35v-35h35v-35h-35h-35v-35h-35v35h-35h-35v35
			h-35h-35v35V245z M630,175v35v35h-35v-35v-35H630z"/>
		<rect x="700" y="210" fill="#36312E" width="35" height="35"/>
		<rect x="315" y="245" fill="#36312E" width="35" height="35"/>
		<polygon fill="#36312E" points="455,245 455,210 420,210 420,245 385,245 385,280 350,280 350,315 385,315 420,315 455,315 
			455,280 		"/>
		<rect x="140" y="280" fill="#36312E" width="35" height="35"/>
		<rect x="210" y="280" fill="#36312E" width="35" height="35"/>
		<rect x="840" y="280" fill="#36312E" width="35" height="35"/>
		<rect x="945" y="280" fill="#36312E" width="35" height="35"/>
		<polygon fill="#36312E" points="140,350 140,315 105,315 105,280 70,280 70,315 35,315 35,280 0,280 0,315 0,350 35,350 70,350 
			70,385 105,385 105,350 		"/>
		<rect x="245" y="315" fill="#36312E" width="35" height="35"/>
		<rect x="455" y="315" fill="#36312E" width="35" height="35"/>
		<rect x="875" y="315" fill="#36312E" width="35" height="35"/>
		<polygon fill="#36312E" points="980,315 980,350 945,350 910,350 910,385 945,385 945,420 945,455 980,455 980,490 945,490 
			945,525 945,560 945,595 980,595 980,630 945,630 945,665 945,700 980,700 980,665 1015,665 1015,630 1015,595 1015,560 980,560 
			980,525 1015,525 1015,490 1015,455 1015,420 980,420 980,385 1015,385 1015,350 1015,315 		"/>
		<rect x="210" y="350" fill="#36312E" width="35" height="35"/>
		<rect x="280" y="350" fill="#36312E" width="35" height="35"/>
		<polygon fill="#36312E" points="770,350 805,350 805,315 770,315 735,315 735,280 700,280 700,315 700,350 735,350 735,385 
			770,385 		"/>
		<polygon fill="#36312E" points="210,455 245,455 280,455 280,420 280,385 245,385 245,420 210,420 175,420 175,455 		"/>
		<polygon fill="#36312E" points="140,455 140,420 175,420 175,385 175,350 140,350 140,385 105,385 105,420 70,420 35,420 35,385 
			0,385 0,420 0,455 35,455 35,490 70,490 70,455 105,455 105,490 70,490 70,525 70,560 70,595 70,630 105,630 105,595 105,560 
			105,525 140,525 140,490 175,490 175,455 		"/>
		<rect x="420" y="455" fill="#36312E" width="35" height="35"/>
		<polygon fill="#36312E" points="525,455 560,455 560,490 595,490 595,455 630,455 630,420 665,420 700,420 735,420 735,385 
			700,385 665,385 630,385 630,350 595,350 595,385 560,385 560,420 525,420 525,385 525,350 490,350 490,385 455,385 455,420 
			490,420 490,455 490,490 525,490 		"/>
		<polygon fill="#36312E" points="700,490 700,525 735,525 735,490 735,455 700,455 		"/>
		<polygon fill="#36312E" points="0,525 0,560 0,595 35,595 35,560 35,525 35,490 0,490 		"/>
		<rect x="455" y="490" fill="#36312E" width="35" height="35"/>
		<path fill="#36312E" d="M805,490v-35v-35h35h35v-35h-35h-35h-35v35h-35v35h35v35v35v35v35h-35v-35h-35v-35h-35h-35h-35h-35h-35v35
			v35h35v35h35h35v-35v-35h35v35h35v35v35h-35h-35h-35h-35h-35v-35h-35v35h-35h-35v-35v-35v-35h-35v-35h-35v-35h35v-35h35v-35v-35
			h-35v-35h-35v35v35v35h-35v35h-35h-35h-35h-35v35h35h35h35v35h-35h-35h-35v35h35h35v35h-35h-35v35h35h35h35v-35v-35h35h35h35v35
			h-35h-35v35h-35v35h35v35h35v35h35v-35h35v-35h35h35v35v35h35v-35v-35h35v35v35v35h-35v35h35v35v35h35h35h35v-35h-35v-35v-35v-35
			h-35v-35h35v-35h35h35v35v35h-35v35h35v35v35h35h35h35h35v35h-35v35v35h35v-35h35h35v-35h-35v-35v-35h35v-35v-35h-35v-35v-35h-35
			h-35v-35h-35v-35h35v-35v-35v-35h35v-35H805z M840,735v35v35v35h-35h-35h-35v-35v-35v-35h35h35H840z"/>
		<rect x="420" y="525" fill="#36312E" width="35" height="35"/>
		<rect x="455" y="595" fill="#36312E" width="35" height="35"/>
		<polygon fill="#36312E" points="910,595 910,560 910,525 910,490 910,455 910,420 875,420 875,455 875,490 875,525 840,525 
			840,560 875,560 875,595 875,630 910,630 945,630 945,595 		"/>
		<rect y="630" fill="#36312E" width="35" height="35"/>
		<polygon fill="#36312E" points="70,665 35,665 35,700 70,700 70,735 105,735 140,735 140,700 140,665 105,665 		"/>
		<rect x="875" y="665" fill="#36312E" width="35" height="35"/>
		<rect y="700" fill="#36312E" width="35" height="35"/>
		<polygon fill="#36312E" points="175,700 175,735 210,735 245,735 245,700 210,700 		"/>
		<rect x="280" y="735" fill="#36312E" width="35" height="35"/>
		<rect x="315" y="770" fill="#36312E" width="35" height="35"/>
		<rect x="455" y="770" fill="#36312E" width="35" height="35"/>
		<rect x="770" y="770" fill="#36312E" width="35" height="35"/>
		<polygon fill="#36312E" points="945,805 980,805 980,840 980,875 945,875 910,875 910,910 945,910 980,910 980,945 1015,945 
			1015,910 1015,875 1015,840 1015,805 1015,770 1015,735 980,735 945,735 910,735 910,770 945,770 		"/>
		<polygon fill="#36312E" points="315,840 280,840 280,875 315,875 350,875 350,840 		"/>
		<polygon fill="#36312E" points="385,840 385,875 350,875 350,910 385,910 385,945 350,945 350,980 350,1015 385,1015 420,1015 
			420,980 455,980 455,945 420,945 420,910 455,910 455,875 455,840 420,840 		"/>
		<polygon fill="#36312E" points="315,910 280,910 280,945 315,945 350,945 350,910 		"/>
		<rect x="490" y="910" fill="#36312E" width="35" height="35"/>
		<polygon fill="#36312E" points="735,945 700,945 665,945 630,945 595,945 560,945 525,945 525,980 525,1015 560,1015 595,1015 
			630,1015 665,1015 700,1015 735,1015 770,1015 770,980 735,980 		"/>
		<polygon fill="#36312E" points="945,980 945,1015 980,1015 1015,1015 1015,980 980,980 980,945 945,945 		"/>
		<rect x="280" y="980" fill="#36312E" width="35" height="35"/>
		<polygon fill="#36312E" points="875,1015 910,1015 910,980 875,980 840,980 840,1015 		"/>
	</g>
	<g transform="translate(0,0) scale(2.45, 2.45)">
		<g transform="">
			<g>
				<rect x="15" y="15" fill="none" width="70" height="70"/>
				<path fill="#36312E" d="M85,0H15H0v15v70v15h15h70h15V85V15V0H85z M85,85H15V15h70V85z"/>
			</g>
		</g>
	</g>
	<g transform="translate(770,0) scale(2.45, 2.45)">
		<g transform="">
			<g>
				<rect x="15" y="15" fill="none" width="70" height="70"/>
				<path fill="#36312E" d="M85,0H15H0v15v70v15h15h70h15V85V15V0H85z M85,85H15V15h70V85z"/>
			</g>
		</g>
	</g>
	<g transform="translate(0,770) scale(2.45, 2.45)">
		<g transform="">
			<g>
				<rect x="15" y="15" fill="none" width="70" height="70"/>
				<path fill="#36312E" d="M85,0H15H0v15v70v15h15h70h15V85V15V0H85z M85,85H15V15h70V85z"/>
			</g>
		</g>
	</g>
	<g transform="translate(70,70) scale(1.05, 1.05)">
		<g transform="">
			<rect x="0" y="0" fill="#36312E" width="100" height="100"/>
		</g>
	</g>
	<g transform="translate(840,70) scale(1.05, 1.05)">
		<g transform="">
			<rect x="0" y="0" fill="#36312E" width="100" height="100"/>
		</g>
	</g>
	<g transform="translate(70,840) scale(1.05, 1.05)">
		<g transform="">
			<rect x="0" y="0" fill="#36312E" width="100" height="100"/>
		</g>
	</g>
</g>
</svg>
