<?xml version="1.0" encoding="utf-8"?>
<!-- Generator: Adobe Illustrator 18.0.0, SVG Export Plug-In . SVG Version: 6.00 Build 0)  -->
<!DOCTYPE svg PUBLIC "-//W3C//DTD SVG 1.1//EN" "http://www.w3.org/Graphics/SVG/1.1/DTD/svg11.dtd">
<svg version="1.1" id="Capa_1" xmlns="http://www.w3.org/2000/svg" xmlns:xlink="http://www.w3.org/1999/xlink" x="0px" y="0px"
	 viewBox="0 0 796 348.8" enable-background="new 0 0 796 348.8" xml:space="preserve">
<g>
	<g>
		<g>
			<path fill="#FFFFFF" d="M86,147.4c-0.5,14.4-0.9,28.8-1.3,43.2c-5.2,0.3-7.7,0.5-12.9,0.9c-0.7-6.4-1.4-11.3-2.3-14.7
				c-0.8-3.4-1.9-6.1-3.2-8c-1.5-2.3-3.3-3.8-5.5-4.7c-2.2-0.9-5.8-1.3-10.7-1.1c-1,0-1.5,0-2.4,0.1c-4.2,0.1-6.3,0.2-10.4,0.3
				c-0.2,13.3-0.3,21.3-0.5,37.1c1.2-0.1,1.9-0.2,3.1-0.3c3.6-0.3,6.2-2.2,7.7-5.3c1.5-3.2,2.4-8.7,2.5-16.1c0-0.5,0-0.7,0-1.2
				c4.1-0.2,6.1-0.3,10.2-0.5c-0.4,20.8-0.9,41.5-1.3,62.3c-4,0.6-6,1-10,1.7c0-9.3-0.6-15.7-1.8-18.5c-1.3-2.8-3.7-4-7.4-3.5
				c-1.3,0.2-1.9,0.3-3.2,0.4c-0.2,14.2-0.4,28.3-0.6,42.5c5.6-1.2,8.4-1.8,14-2.9c5.4-1.1,9.2-2.3,11.3-3.6
				c2.1-1.4,3.7-3.3,4.9-5.9c1.3-3.1,2.4-6.9,3.2-11.4c0.8-4.5,1.4-10.3,1.8-17.3c5.3-0.6,8-1,13.3-1.6c-0.4,16.1-0.9,32.3-1.4,48.4
				c-28,5.4-55,11.6-83,19.7c0-6,0-9.4,0-16.8c2-0.4,2.3-0.6,3.9-1c2.6-0.7,4.3-1.6,5.1-2.8c0.8-1.2,1.2-4.2,1.3-9.2
				c0-0.4,0-0.6,0-1c0.1-27,0.2-54,0.4-81c0-5.4-0.4-8.4-1.1-9.6c-0.8-1.1-2.6-1.6-5.5-1.5c-1.6,0.1-2,0.1-4,0.1
				c0-7.3,0-10.8,0-16.7C28,147.6,57.3,147.5,86,147.4z"/>
			<path fill="#FFFFFF" d="M144.5,147.3c-0.2,5-0.3,7.9-0.5,13.8c-1.9,0-2.8,0-4.7,0.1c-2.7,0-4.5,0.5-5.4,1.3
				c-0.9,0.8-1.4,3.2-1.5,7.3c0,0.3,0,0.5,0,0.8c-0.8,25-1.5,50.1-2.4,75.1c2.2-0.3,3.3-0.4,5.5-0.7c5.1-0.6,8.7-1.4,10.8-2.3
				c2.1-0.9,3.8-2.3,5.1-4.2c1.6-2.4,2.9-5.5,3.9-9.6c0.9-4,1.7-9.7,2.2-17c5.1-0.4,7.7-0.5,12.8-0.9c-0.5,14.8-0.9,29.5-1.5,44.3
				c-25.9,2.8-51.6,6.3-77.2,10.5c0.2-5.2,0.3-8.2,0.5-14.5c1.6-0.3,2.4-0.4,4.1-0.6c2.8-0.4,4.7-1.2,5.5-2.4
				c0.8-1.1,1.3-3.9,1.5-8.5c0.7-22.9,1.3-45.7,2-68.6c0.1-4.6-0.2-7.2-0.9-8.2c-0.8-1-2.6-1.4-5.5-1.4c-1.6,0-2.5,0-4.1,0.1
				c0.2-6.3,0.3-9.2,0.5-14.4C111.6,147.4,128,147.4,144.5,147.3z"/>
			<path fill="#FFFFFF" d="M228,228.5c0.5-19.7,1-39.5,1.5-59.2c0.1-4-0.2-6.4-1-7.3c-0.8-0.9-2.6-1.3-5.5-1.3c-1.7,0-2.5,0-4.1,0
				c0.2-5.6,0.2-8.3,0.4-13.3c18.8,0,37.7,0,56.5,0.1c10,0,17.4,1.9,22.3,5.8c4.9,3.9,7.3,10,7.2,18.4c-0.1,5.7-1.6,10.5-4.7,14.5
				c-3.1,4-7.4,6.8-13.1,8.3c5.6,0.8,9.4,2.9,11.4,6.3c2,3.4,2.9,11.4,2.7,23.4c0,3.6,0.2,6.1,0.7,7.4c0.5,1.3,1.3,2,2.5,2
				c1.1,0,2-0.9,2.5-2.6c0.6-1.7,0.9-4.2,0.9-7.7c0-0.3,0-0.9,0-1.7c0-0.8,0-1.4,0-1.8c3.4-0.1,5.1-0.1,8.4-0.2c0,0.4,0,1.1,0,2
				c0,0.9,0,1.6,0,2c-0.1,9.3-1.7,15.9-5,19.9c-3.2,4-8.4,6-15.6,6.2c-7.6,0.2-13.1-1.3-16.5-4.6c-3.4-3.4-5-9-4.9-17.3
				c0.1-3.4,0.1-5.1,0.1-8.6c0.1-6.9-0.6-11.4-2-13.3c-1.4-1.9-4.5-2.8-9.1-2.7c-3,0.1-4.5,0.1-7.4,0.2c-0.2,9.7-0.3,14.5-0.5,23.7
				c-0.1,4,0.3,6.3,1.1,7.2c0.8,0.9,2.7,1.2,5.5,1.1c1.9-0.1,2.8-0.1,4.7-0.2c-0.1,5.6-0.2,8.3-0.3,13.4
				c-16.8,0.7-33.6,1.6-50.4,2.8c0.2-5,0.2-7.7,0.4-13.4c1.7-0.1,2.5-0.2,4.2-0.3c2.9-0.2,4.8-0.8,5.7-1.7
				C227.4,235,227.9,232.6,228,228.5z M256.1,188.9c2.9,0,4.3-0.1,7.2-0.1c5.1-0.1,8.7-1.2,10.8-3.3c2.1-2.1,3.2-5.6,3.3-10.3
				c0.1-5.2-0.8-8.8-2.7-10.8c-1.9-2-5.2-3-10-3.1c-3.2,0-4.9,0-8.1,0C256.4,171.8,256.3,177.5,256.1,188.9z"/>
			<path fill="#FFFFFF" d="M359.5,246.4c0-5.4-0.2-8.2-0.2-13.7c1.5,0,2.1,0,3.6-0.1c3.1,0,5-0.3,5.7-0.7c0.7-0.4,1-1.2,1-2.3
				c0-0.8-0.1-1.5-0.2-2.2c-0.1-0.7-0.2-1.4-0.4-2c-1.2-4.2-1.8-6.3-2.9-10.6c-8.9,0.1-13.3,0.2-22.3,0.3c-1.1,3.8-1.6,5.8-2.6,9.6
				c-0.5,1.5-0.8,2.6-0.9,3.4c-0.2,0.8-0.2,1.6-0.3,2.2c0,0.9,0.5,1.5,1.5,2c1,0.5,2.4,0.7,4.3,0.6c1.6,0,2.5,0,4.1-0.1
				c0,5.6,0,8.3,0,13.7c-14.9,0.2-22.3,0.3-37.3,0.6c0.1-5.2,0.1-8,0.1-13.5c1.2,0,1.9-0.1,3.1-0.1c2.1-0.1,3.9-0.9,5.3-2.5
				c1.4-1.6,2.7-4.2,3.8-7.9c7.3-25.2,14.5-50.5,22.1-75.6c11.9,0,17.8,0,29.7,0.1c6.4,24.7,12.8,49.5,19.2,74.2
				c1.3,4.9,2.5,7.8,3.6,8.8c1.1,1,3.3,1.6,5.7,1.6c1.7,0,2.8,0,4.8,0.1c0,5.6,0,8.4,0,13.9C393,246.1,376.2,246.2,359.5,246.4z
				 M362.3,200.5c-3-12.1-4.5-18.3-7.4-30.3c-2.8,12-4.3,18.1-7.1,30.4C353.6,200.5,356.5,200.5,362.3,200.5z"/>
			<path fill="#FFFFFF" d="M445.9,147.6c10.6,22.5,20.7,45.4,30.5,68.2c0-15.4,0-30.8,0-46.2c0-4.1-0.4-6.5-1.3-7.3
				c-0.9-0.8-2.7-1.2-5.4-1.2c-1.9,0-2.8,0-4.6,0c0-5.6,0-8.3,0-13.6c14.4,0,21.6-0.2,36.1-0.2c0,5.3,0,8.5,0.1,13.5
				c-1.2,0-1.8,0-2.9,0c-2.9,0-4.7,0.6-5.5,1.5c-0.8,0.9-1.2,3.3-1.2,7.3c0.1,26.4,0.1,52.9,0.2,79.3c-11.3-0.6-17-0.9-28.3-1.3
				c-10.9-24-21.3-48.1-32-72.2c0,16.3,0,32.6,0,48.9c0,3.8,0.4,6.2,1.2,7.2c0.8,0.9,2.7,1.4,5.5,1.5c1.5,0,2.2,0.1,3.7,0.1
				c0,5.6-0.3,8.3-0.3,13.8c-14.5-0.4-20.6-0.5-36.6-0.7c0-5.6,0-8.3,0-13.9c3,0,2.7,0,4.3,0.1c2.9,0,4.9-0.4,5.8-1.3
				c0.8-0.9,1.3-3.3,1.3-7c0-18.1,0-36.1,0-54.2c0-3.7-0.4-6.1-1.2-7c-0.8-0.9-3-1.4-6-1.3c-1.6,0-1.3,0-4.3,0c0-5.6,0-8.3,0-13.9
				C419,147.6,432.4,147.6,445.9,147.6z"/>
			<path fill="#FFFFFF" d="M590.3,215.5c-0.2,15.6-3.6,26.4-10.2,32.9c-6.6,6.5-16,8.7-28.2,7.6c-14.3-1.2-25.4-6-32.9-15.6
				c-9.1-11.5-12.3-27.7-11.6-41.6c0.6-14.4,2.1-28.3,11.7-40.3c7.6-9.5,18.4-13.8,31.6-13.8c4.4,0,8.6,0.5,12.4,1.5
				c3.8,1,7.5,3.5,11,5.8c0.8-2.1,1.2-2.3,2-4.3c5.3,0,8,0,13.3,0c0.1,13,0.2,28.4,0.3,43.1c-5.9-0.2-8.8-0.8-14.7-1
				c-1.5-11.1-3.8-18.9-6.7-23.6c-3-4.6-7-6.9-11.9-6.9c-5.8,0-10,2.9-12.6,9.1c-2.6,6.2-3.9,16.5-3.8,31.1
				c0.1,15.1,1.5,25.8,4.2,32.2c2.8,6.5,7.2,9.8,13.3,10.3c5.6,0.5,10.1-1.5,13.6-6.3c3.5-4.8,5.5-11.9,5.8-21.3
				C582.4,214.9,585,215.1,590.3,215.5z"/>
			<path fill="#FFFFFF" d="M641.3,147.5c0.1,5.3,0.1,8.3,0.1,14.5c-0.5,0-0.8,0-1.4,0c-2.5,0-4.1,0.5-4.8,1.5c-0.7,1-1.1,3.6-1.1,8
				c0.1,8.3,0.1,12.8,0.2,21.7c9.1,0.4,13.7,0.7,22.8,1.1c-0.1-9.2-0.1-13.8-0.2-22.3c0-4.5-0.5-7.2-1.2-8.2
				c-0.8-1.1-2.4-1.6-4.9-1.6c-0.5,0-0.8,0-1.3,0c-0.1-6.2-0.1-9.2-0.1-14.5c15.2,0,30.3,0,45.5,0.1c0.1,5.5,0.1,8.6,0.1,15.1
				c-1.7,0-2.5,0-4.2-0.1c-2.9,0-4.7,0.4-5.5,1.5c-0.8,1-1.2,3.8-1.2,8.5c0.2,23.6,0.4,47.3,0.5,70.9c0,4.8,0.5,7.6,1.3,8.8
				c0.8,1.2,2.7,1.9,5.5,2.3c1.7,0.2,2.5,0.3,4.2,0.6c0.1,6.6,0.1,9.7,0.1,15.2c-15.1-2.2-30.3-4.3-45.5-6.4
				c-0.1-5.4-0.1-8.3-0.1-14.6c0.5,0.1,0.8,0.1,1.3,0.2c2.4,0.3,4,0,4.8-1c0.8-1,1.2-3.6,1.1-8.1c-0.1-10.6-0.1-16.4-0.2-28
				c-9.1-0.7-13.7-1-22.8-1.7c0.1,11.2,0.1,16.8,0.2,27.2c0,4.4,0.4,7,1.2,8.2c0.8,1.2,2.4,1.9,4.8,2.2c0.6,0.1,0.8,0.1,1.4,0.2
				c0.1,6.2,0.1,9.2,0.1,14.5c-15.2-1.9-30.4-3.7-45.6-5.4c0-5.3-0.1-8.1-0.1-14.1c1.7,0.2,2.5,0.2,4.1,0.4c2.8,0.3,4.6,0,5.4-0.7
				c0.9-0.8,1.3-3.4,1.3-8c-0.2-21.4-0.3-42.8-0.5-64.2c0-4.4-0.5-7-1.3-7.9c-0.8-0.9-2.7-1.4-5.6-1.4c-1.6,0-2.5,0-4.1,0
				c0-6-0.1-8.8-0.1-14.1C611,147.5,626.2,147.5,641.3,147.5z"/>
			<path fill="#FFFFFF" d="M701.3,209.5c-0.1-16.7,1.3-35.7,12.3-50.1c8.1-10.6,20.2-14.5,34.9-14.7c13.2-0.2,27,4.5,34.9,15.7
				c11.2,16,13.1,38.4,12.6,57.2c-0.5,18.3-0.6,39.6-12.5,54.7c-7.9,10.1-19.9,11.8-34.6,9.4c-13.6-2.2-26.7-9-34.6-20.4
				C703.6,246,701.4,226.9,701.3,209.5z M748.6,161.2c-5.5-0.1-9.8,3.4-12,10.9c-3.8,12.6-3.6,26.5-3.6,39.5
				c0.1,13.4,0.2,27.7,4,40.7c2.3,7.9,6.5,12.1,12,13c5.5,0.9,9.8-2.1,12-9.5c3.8-12.9,3.6-27.5,3.6-40.9c0-13.8,0-28.6-3.9-42
				C758.3,165,754,161.3,748.6,161.2z"/>
		</g>
	</g>
	<g>
		<path fill="#FFFFFF" d="M249.6,275.8h-12.1c-1.1,0-0.4,0.1-0.4,0.6v2.4c0,0.8,0.5,1.5,1.5,2.2c1,0.7,1.5,1.8,1.5,3.3v55.2
			c0,1.5-0.6,2.6-1.7,3.5c-0.8,0.6-1.3,1.3-1.3,2v2.4c0,0.6-0.5,1.4,0.2,1.4h12c7.4,0,12.8-1.8,15.9-5.1c3.1-3.2,5.4-7.9,6.9-13.8
			c1.4-5.9,2.1-12.2,2.1-18.6c0-12.5-2.4-21.6-7.1-27.2C262.3,278.5,256.4,275.8,249.6,275.8z M260.8,330.8c-0.8,5-2.1,8.2-3.8,9.7
			c-1.6,1.4-4,2.2-7,2.2v-61.2c3,0.2,4.3,0.7,5.5,1.5c1.3,0.8,2.4,2.3,3.3,4.4c0.9,2.1,1.6,5.2,2.2,9.3c0.6,4.1,0.9,9.8,0.9,16.8
			C262,319.9,261.6,325.8,260.8,330.8z"/>
		<path fill="#FFFFFF" d="M310.2,329.8h-2c-0.9,0-1.5,0.7-1.9,1.9c-1.3,4.9-2.4,8.7-3.3,9.7c-0.9,1-2.4,2.3-4.7,2.3H293v-30h0.9
			c1.1,0,2,0,2.6,0.4c0.6,0.5,1.2,1.7,1.7,3.8c0.4,1.7,0.7,2.1,0.8,2.3c0.2,0.3,0.6,0.5,1.1,0.5h2.1c0.9,0,1.7-0.7,1.7-1.5v-17.6
			c0-0.9-0.9-0.9-1.8-0.9h-2.1c-0.7,0-0.9-0.1-1,0c-0.1,0.1-0.2,0.1-0.6,1.4c-0.7,2.7-1.3,3.8-1.8,4.3c-0.5,0.5-1.3,0.3-2.6,0.3H293
			v-24h4.9c2.6,0,4.3,0.2,5.2,1.8c0.9,1.7,1.5,4,1.8,6.4c0.1,1.2,0.9,1.7,1.5,1.7h1.7c0.7,0,0.8-0.7,1-0.9c0.1-0.1-0.1-1-0.1-2
			v-13.7c0-0.7-0.2-1-1.4-1c-0.3,0-0.8,0.2-1.9,0.3c-1.2,0.1-1.9,0.3-2.3,0.3h-24c-1.1,0-1.4,0.3-1.4,0.7v2.2c0,0.8,0.5,1.5,1.3,2
			c1.1,0.8,1.7,1.9,1.7,3.5v55.2c0,1.5-0.5,2.5-1.3,3.2c-1.1,0.8-1.7,1.6-1.7,2.3v2.1c0,0.9,0.6,1.7,1.4,1.7H312v-17.4
			C312,330.6,311.1,329.8,310.2,329.8z"/>
		<path fill="#FFFFFF" d="M343.4,329.8h-2.2c-0.5,0-0.8,0.4-1,0.6c-0.1,0.1-0.2,0.7-0.6,2.5c-0.6,3.4-1.6,6.6-2.8,8
			c-1.2,1.4-3,2.8-5.3,2.8H329v-59.5c0-1.5,0.1-2.6,1.2-3.4c0.9-0.6,0.8-1.3,0.8-2.1v-2.1c0-0.8-0.6-0.8-1.4-0.8H315
			c-1.2,0-1,0.3-1,0.9v2.1c0,0.8,0.4,1.5,1.3,2.1c1.1,0.8,1.7,1.9,1.7,3.4v55.2c0,1.6-0.4,2.7-1.7,3.5c-1,0.6-1.3,1.3-1.3,2v1.8
			c0,0.7-0.5,2,1,2h30v-17.3C345,331,344.7,329.8,343.4,329.8z"/>
		<path fill="#FFFFFF" d="M382,304.1c-3.7-3.8-6.3-7-7.5-9.3c-1.2-2.3-1.9-4.7-1.9-6.9c0-1.9,0.5-3.6,1.6-5.1c1-1.5,2.4-2.2,4.1-2.2
			c3.2,0,5.5,3.4,6.9,10c0.6,2.7,0.8,3.8,0.9,4c0.2,0.4,0.6,1.1,1.3,1.1h2.1c0.8,0,1.4-1.7,1.4-2.6v-15.4c0-1-0.7-2-1.7-2h-1.7
			c-0.6,0-1.1,0.4-1.5,0.6c-0.3,0.2-0.6,0.5-0.9,0.5c-0.2,0-0.6,0-1.7-0.6c-2-1-3.9-1.4-5.6-1.4c-3.8,0-7,1.7-9.7,5.1
			c-2.6,3.3-3.9,7.7-3.9,12.9c0,2.8,0.4,5.4,1.2,7.8c0.8,2.3,1.9,4.5,3.3,6.3c1.4,1.8,3.7,4.5,6.9,7.8c4.1,4.4,6.9,7.9,8.3,10.4
			c1.4,2.5,2.1,5.3,2.1,8.3c0,2.9-0.7,5.3-2,7.4c-1.3,2-3.1,3-5.4,3c-4.4,0-7.3-4.1-8.5-12.1c-0.3-2.2-0.6-3.7-0.7-4.1
			c-0.2-0.4-0.6-0.9-1.2-0.9h-2c-0.7,0-1.3,0.9-1.3,2.6V347c0,1.2,0.5,1.9,1.2,1.9h2.3c0.3,0,0.6-0.3,1-0.6c0.5-0.3,0.8-0.5,1.1-0.5
			c0.3,0,0.9,0.1,1.7,0.5c2.6,1,4.8,1.5,6.7,1.5c4.3,0,8.1-1.9,11.2-5.6c3.1-3.7,4.7-8.6,4.7-14.6c0-4.4-0.9-8.5-2.8-12.3
			C390.2,313.4,386.8,309,382,304.1z"/>
		<path fill="#FFFFFF" d="M435.8,343.4c-0.9-0.5-1.5-1.1-1.8-1.5c-0.3-0.5-0.6-1.3-0.8-2.4l-12.6-63.3c-0.2-0.8-0.7-1-1-1
			c-0.2,0-0.4,0-0.5,0.1l-7.9,3.7c-0.5,0.3-0.8,0.6-0.8,1c0,0.1,0,0.4,0.2,1.8l0.4,3.1l-10.8,54.2c-0.4,1.8-1.5,3.1-2.7,3.8
			c-0.7,0.4-1.4,1-1.4,1.8v2.4c0,0.6,0.8,1.7,2.4,1.7h9.8c1.3,0,2.9-1.1,2.9-1.7v-2.1c0-0.6-1.1-1.3-2.1-2.1
			c-1.3-1.1-2.3-2.1-2.3-2.9c0-0.2-0.1-0.5,0-0.9l1.8-9.3h11.9l1.9,9.6c0.1,0.4,0.1,0.8,0.1,1.1c0,1.1-0.5,1.9-1.6,2.5
			c-1.1,0.5-1.5,1.2-1.5,2v2.1c0,0.6,0.1,1.7,1.3,1.7h15.6c0.4,0,1.1-0.6,1.1-1.7v-2.1C437,344.4,436.6,343.9,435.8,343.4z
			 M418.9,325.8h-9.2l4.6-22.7L418.9,325.8z"/>
		<path fill="#FFFFFF" d="M461.4,311.1c4.4-1.8,7.6-4.2,9.5-7.4c1.9-3.2,2.9-6.7,2.9-10.4c0-5.2-1.7-9.4-5.1-12.7
			c-3.4-3.3-7.9-4.8-13.5-4.8h-14.9c-1.1,0-1.3,0.3-1.3,0.8v2.1c0,0.8,0.4,1.5,1.3,2c1.1,0.7,1.7,1.9,1.7,3.5v55.2
			c0,1.5-0.6,2.7-1.7,3.5c-0.8,0.6-1.3,1.3-1.3,2v2.3c0,0.7,0.3,1.5,1,1.5h14.3c3.4,0,6.8-0.9,10.1-2.3c3.4-1.4,6-3.8,7.9-6.9
			c1.9-3.1,2.8-6.7,2.8-10.6C475.1,320.3,470.5,314.2,461.4,311.1z M462.5,336.9c-0.8,2-1.5,3.4-3,4.2c-1.5,0.8-3.5,1.3-5.5,1.4
			v-28.5c3,0.1,6,1.3,7.6,3.7c1.7,2.4,2.3,6.1,2.3,11.1C463.9,332.2,463.3,334.9,462.5,336.9z M454,308.3v-26.7c2,0,3.3,0.3,4.5,1
			c1.3,0.6,2.1,2,3,4.1c0.9,2.1,1.7,4.9,1.7,8.2C463.2,303.8,461,308.2,454,308.3z"/>
		<path fill="#FFFFFF" d="M498.7,274.5c-6.2,0-11,3.5-14.2,10.3c-3.2,6.8-4.8,16-4.8,27.5c0,11.5,1.6,20.7,4.8,27.2
			c3.2,6.6,8.2,9.9,14.7,9.9c5.6,0,10.1-3.2,13.5-9.5c3.3-6.2,5-15.7,5-28.2c0-12.2-1.7-21.5-5.1-27.8
			C509.2,277.7,504.5,274.5,498.7,274.5z M492.5,299.2c0.4-6.5,0.8-10.9,1.3-13.2c0.5-2.2,1.2-3.7,2.1-4.6c0.9-0.8,1.9-1.3,3-1.3
			c1.3,0,2.4,0.5,3.2,1.6c0.8,1.1,1.6,3.6,2.4,7.5c0.7,3.9,1.1,8.9,1.1,15c0,6.7-0.3,14.2-0.7,22.2c-0.5,8-1.3,13-2.5,14.7
			c-1.1,1.7-2.4,2.6-3.7,2.6c-2.3,0-4-1.9-5.1-5.5c-1.1-3.7-1.7-10-1.7-18.8C491.9,312.6,492.1,305.8,492.5,299.2z"/>
		<path fill="#FFFFFF" d="M558.8,343.5c-0.9-0.6-1.4-1.2-1.8-1.8c-0.4-0.7-0.7-1.9-1.2-3.8l-3.4-14.8c-0.7-3.1-1.7-5.4-3.1-7
			c-1.3-1.5-3.1-2.9-5.4-4.1c8.4-2.8,12.7-8.9,12.7-18.2c0-5.9-1.8-10.3-5.5-13.5c-3.6-3.1-9-4.5-15.9-4.5H523c-1.2,0-2,0.3-2,0.9
			v2.1c0,0.8,1.4,1.5,2.3,2.1c1.1,0.8,2.7,1.9,2.7,3.4v55.2c0,1.5-1.6,2.7-2.7,3.5c-0.9,0.6-2.3,1.3-2.3,2v2.2c0,0.8,1,1.6,1.8,1.6
			h14.6c1.2,0,1.6-1.1,1.6-1.7v-2.1c0-0.8-0.4-1.5-1.3-2c-1.1-0.8-1.7-1.9-1.7-3.5v-25.1c2,0.1,2,0.5,2.7,1.2
			c0.8,0.8,1.5,2.6,2.2,5.4l6.4,25.9c0.3,1.1,0.9,1.9,1.9,1.9h9.3c0.8,0,0.6-0.8,0.6-1.6v-2.7C559,344.1,559.2,343.7,558.8,343.5z
			 M545.2,294.3c0,5.3-0.7,9.1-2.3,11.2c-1.5,2-4,3-7,3.1v-27c3,0,5.4,0.9,7,2.4C544.5,285.6,545.2,289.1,545.2,294.3z"/>
	</g>
	<g>
		<g>
			<path fill="#FFFFFF" d="M119.8,323v-23.9h18v4.7H125v4.8h11.3v4.7H125v5h13v4.7H119.8z"/>
			<path fill="#FFFFFF" d="M159.3,319.1c-0.4,0.9-1,1.7-1.8,2.3c-0.8,0.6-1.7,1.1-2.7,1.4c-1.1,0.3-2.2,0.5-3.5,0.5
				c-1.8,0-3.6-0.3-5.4-0.9c-1.8-0.6-3.3-1.6-4.8-2.9l3.1-3.7c1.1,0.9,2.2,1.6,3.4,2.1c1.1,0.5,2.4,0.8,3.8,0.8
				c1.1,0,1.9-0.2,2.5-0.6c0.6-0.4,0.9-0.9,0.9-1.7v-0.1c0-0.3-0.1-0.6-0.2-0.9c-0.1-0.3-0.4-0.5-0.7-0.7c-0.4-0.2-0.8-0.5-1.5-0.7
				c-0.6-0.2-1.4-0.5-2.4-0.7c-1.2-0.3-2.3-0.6-3.3-1c-1-0.4-1.8-0.8-2.5-1.3c-0.7-0.5-1.2-1.2-1.6-2c-0.4-0.8-0.6-1.8-0.6-3v-0.1
				c0-1.1,0.2-2.1,0.6-2.9c0.4-0.9,1-1.6,1.7-2.3c0.7-0.6,1.6-1.1,2.6-1.5c1-0.3,2.1-0.5,3.4-0.5c1.8,0,3.4,0.3,4.8,0.8
				c1.5,0.5,2.8,1.3,4,2.3l-2.7,4c-1.1-0.7-2.1-1.3-3.1-1.7c-1-0.4-2-0.6-3.1-0.6c-1,0-1.8,0.2-2.3,0.6c-0.5,0.4-0.8,0.9-0.8,1.5
				v0.1c0,0.4,0.1,0.7,0.2,1c0.1,0.3,0.4,0.5,0.8,0.8c0.4,0.2,0.9,0.4,1.6,0.6c0.7,0.2,1.5,0.4,2.5,0.7c1.2,0.3,2.3,0.7,3.2,1.1
				c0.9,0.4,1.7,0.9,2.4,1.4c0.6,0.6,1.1,1.2,1.5,2c0.3,0.8,0.5,1.6,0.5,2.7v0.1C159.9,317.1,159.7,318.1,159.3,319.1z"/>
			<path fill="#FFFFFF" d="M175.3,303.9v19H170v-19h-7.3v-4.8h19.8v4.8H175.3z"/>
			<path fill="#FFFFFF" d="M185.8,323v-5.5h5.5v5.5H185.8z"/>
		</g>
		<g>
			<path fill="#FFFFFF" d="M603.9,304.3c-0.7,0.5-1.5,1.3-2.4,2.4l-3.7-3c0.6-0.8,1.2-1.5,1.8-2.1c0.6-0.6,1.3-1.1,1.9-1.6
				c0.7-0.4,1.5-0.7,2.3-1c0.8-0.2,1.8-0.3,2.9-0.3c1.3,0,2.4,0.2,3.4,0.5c1,0.4,1.9,0.9,2.6,1.5s1.3,1.4,1.6,2.3
				c0.4,0.9,0.6,1.9,0.6,3c0,1-0.1,1.9-0.4,2.7c-0.3,0.8-0.6,1.5-1.2,2.2c-0.5,0.7-1.2,1.4-2,2.1c-0.8,0.7-1.7,1.4-2.8,2.3l-3.9,3
				h10.4v4.5h-17.7v-4.2l7.9-6.5c0.7-0.6,1.4-1.2,1.9-1.6c0.5-0.5,0.9-1,1.3-1.4c0.3-0.4,0.6-0.9,0.7-1.3c0.1-0.4,0.2-0.9,0.2-1.4
				c0-1-0.3-1.8-0.9-2.3c-0.6-0.5-1.4-0.8-2.3-0.8C605.5,303.5,604.6,303.7,603.9,304.3z"/>
			<path fill="#FFFFFF" d="M639.4,315.9c-0.5,1.5-1.2,2.8-2.2,3.9c-0.9,1.1-2.1,2-3.4,2.6c-1.3,0.6-2.8,1-4.3,1s-3-0.3-4.3-0.9
				c-1.3-0.6-2.4-1.5-3.3-2.6c-0.9-1.1-1.6-2.4-2.1-3.9c-0.5-1.5-0.8-3.1-0.8-4.9c0-1.7,0.3-3.3,0.8-4.9c0.5-1.5,1.2-2.8,2.2-3.9
				c0.9-1.1,2.1-2,3.4-2.6c1.3-0.6,2.8-1,4.3-1c1.6,0,3,0.3,4.3,0.9c1.3,0.6,2.4,1.5,3.3,2.6c0.9,1.1,1.6,2.4,2.1,3.9
				c0.5,1.5,0.8,3.1,0.8,4.8C640.1,312.7,639.9,314.4,639.4,315.9z M634.4,308c-0.3-0.9-0.6-1.7-1.1-2.4c-0.5-0.7-1-1.2-1.7-1.6
				c-0.6-0.4-1.4-0.6-2.2-0.6c-0.8,0-1.5,0.2-2.1,0.6c-0.6,0.4-1.2,0.9-1.6,1.6c-0.5,0.7-0.8,1.5-1,2.4c-0.2,0.9-0.4,1.9-0.4,3
				c0,1.1,0.1,2.1,0.4,3c0.2,0.9,0.6,1.7,1.1,2.4c0.5,0.7,1,1.2,1.7,1.6c0.6,0.4,1.4,0.6,2.2,0.6c0.8,0,1.5-0.2,2.1-0.6
				c0.6-0.4,1.2-0.9,1.6-1.6c0.5-0.7,0.8-1.5,1-2.4s0.4-1.9,0.4-3C634.8,310,634.6,309,634.4,308z"/>
			<path fill="#FFFFFF" d="M649.7,298.9h3.6v24h-5.2v-18.7l-4.2,1l-1.1-4.3L649.7,298.9z"/>
			<path fill="#FFFFFF" d="M675.6,319.2c-0.5,0.9-1.1,1.6-1.9,2.2c-0.8,0.6-1.8,1.1-2.9,1.4c-1.1,0.3-2.3,0.5-3.7,0.5
				c-1.3,0-2.5-0.2-3.7-0.5c-1.1-0.3-2.1-0.8-2.9-1.4c-0.8-0.6-1.5-1.3-1.9-2.2c-0.5-0.9-0.7-1.8-0.7-2.8c0-1.5,0.3-2.7,1-3.6
				c0.6-0.9,1.6-1.6,2.9-2.2c-0.9-0.6-1.7-1.3-2.2-2.1s-0.8-1.9-0.8-3.2c0-0.9,0.2-1.8,0.6-2.6c0.4-0.8,1-1.5,1.7-2.1
				c0.7-0.6,1.6-1.1,2.6-1.4c1-0.3,2.2-0.5,3.4-0.5c1.3,0,2.4,0.2,3.4,0.5c1,0.3,1.9,0.8,2.7,1.4c0.7,0.6,1.3,1.3,1.7,2.1
				c0.4,0.8,0.6,1.7,0.6,2.6c0,1.3-0.3,2.4-0.8,3.2c-0.5,0.8-1.3,1.5-2.2,2.1c1.2,0.6,2.2,1.4,2.8,2.2c0.7,0.9,1,2,1,3.4
				C676.3,317.4,676.1,318.3,675.6,319.2z M670.1,313.8c-0.8-0.5-1.8-0.8-3-0.8c-1.2,0-2.2,0.3-3,0.8c-0.8,0.5-1.2,1.2-1.2,2.2
				c0,0.9,0.4,1.6,1.1,2.1c0.7,0.6,1.7,0.8,3,0.8s2.3-0.3,3-0.8c0.7-0.6,1.1-1.3,1.1-2.1C671.2,315,670.9,314.3,670.1,313.8z
				 M669.6,304c-0.6-0.6-1.4-0.8-2.5-0.8c-1.1,0-1.9,0.3-2.5,0.8c-0.6,0.6-0.9,1.2-0.9,1.9c0,0.9,0.3,1.6,0.9,2.1
				c0.6,0.6,1.4,0.8,2.5,0.8c1,0,1.9-0.3,2.5-0.8c0.6-0.5,0.9-1.2,0.9-2.1C670.5,305.2,670.2,304.5,669.6,304z"/>
		</g>
	</g>
	<g>
		<path fill="#FFFFFF" d="M367.3,55c-0.1-4.9,0.2-9.8,1.1-14.7c0.8-4.3,1.7-8.6,2.6-12.8c0.1-0.7,0.3-1.3,0.5-2
			c0.2-0.6,0.3-1.3,0.5-1.9c-0.3,0.2-0.4,0.5-0.5,0.7c-2.8,6.9-5.1,13.9-6.3,21.3c-1,6.3-1.3,12.6-0.2,19c0.8,5,2.5,9.7,5.2,14
			c3.6,5.7,8.4,9.8,14.5,12.6c1.2,0.6,2.5,1,3.8,1.5c0-0.1,0-0.1,0.1-0.2c-1.6-1-3.2-2-4.8-3.1c-5.6-3.9-9.8-9-12.6-15.3
			C368.5,68,367.5,61.6,367.3,55z"/>
		<path fill="#FFFFFF" d="M374.3,110.8c7.4,4.2,15.3,6.6,23.9,6.7c8.6,0,16.5-2.4,23.9-6.7c-8,3.4-16,5.2-23.9,5.2
			C390.3,115.9,382.3,114.2,374.3,110.8z"/>
		<path fill="#FFFFFF" d="M411.8,91.1c6-2.8,10.9-6.9,14.5-12.6c2.7-4.3,4.4-9,5.2-14c1.1-6.3,0.8-12.7-0.2-19
			c-1.2-7.4-3.5-14.4-6.3-21.3c-0.1-0.3-0.2-0.5-0.5-0.7c0.2,0.6,0.3,1.3,0.5,1.9c0.2,0.7,0.3,1.3,0.5,2c0.9,4.3,1.8,8.5,2.6,12.8
			c0.9,4.9,1.3,9.8,1.1,14.7c-0.2,6.6-1.2,13-3.9,19.1c-2.8,6.2-7,11.3-12.6,15.3c-1.6,1.1-3.2,2.1-4.8,3.1c0,0.1,0,0.1,0.1,0.2
			C409.3,92.1,410.6,91.7,411.8,91.1z"/>
		<path fill="#FFFFFF" d="M452.7,50c-0.6-5.9-1.8-11.6-3.5-17.3c-1.4-4.6-3.1-9-4.8-13.5c-0.3-0.8-0.2-1.2,0.5-1.6
			c1.3-0.7,2.5-1.4,3.8-2.1c-0.8-1.6-1.5-3.1-2.2-4.6c-1.7-3.4-3.3-6.8-5-10.2c-0.3-0.6-0.6-0.8-1.2-0.4c-6,3.4-11.9,6.9-17.9,10.3
			c-0.3,0.2-0.6,0.4-1,0.7c0.7,1.3,1.4,2.7,2.1,4.1c1.9,4.1,3.9,8.1,5.5,12.3c1.6,4.3,2.9,8.8,4.2,13.3c1.4,5,2,10.1,2,15.2
			c0.1,7.5-1.1,14.7-4.7,21.3c-3.4,6.2-8.2,10.9-14.5,14c-5.7,2.8-11.7,4.1-17.7,4c-6,0.1-12-1.2-17.8-4c-6.3-3.1-11.2-7.8-14.5-14
			c-3.6-6.6-4.8-13.8-4.7-21.3c0.1-5.2,0.6-10.3,2-15.2c1.3-4.5,2.5-8.9,4.2-13.3c1.6-4.2,3.6-8.2,5.5-12.3c0.6-1.4,1.4-2.7,2.1-4.1
			c-0.4-0.3-0.7-0.5-1-0.7c-6-3.4-11.9-6.8-17.9-10.3c-0.6-0.4-0.9-0.2-1.2,0.4c-1.6,3.4-3.3,6.8-5,10.2c-0.7,1.5-1.5,3-2.2,4.6
			c1.4,0.8,2.6,1.5,3.8,2.1c0.7,0.4,0.9,0.8,0.5,1.6c-1.7,4.5-3.4,9-4.8,13.5c-1.7,5.6-2.8,11.4-3.5,17.3c-1,8.9,0,17.6,2.8,26.1
			c1.9,5.6,4.6,10.7,8.2,15.5c9.1,11.9,21,18.8,35.8,20.9c2.5,0.4,5,0.5,7.6,0.5c2.6,0,5.1-0.2,7.6-0.5c14.7-2.1,26.7-9,35.8-20.9
			c3.6-4.7,6.3-9.9,8.2-15.5C452.7,67.6,453.7,58.9,452.7,50z M353.1,60.1c-1.9,0-3.4-1.6-3.5-3.5c0-2,1.5-3.5,3.4-3.5
			c2,0,3.6,1.6,3.5,3.5C356.6,58.5,354.9,60.1,353.1,60.1z M398.3,100.6C398.3,100.6,398.3,100.6,398.3,100.6
			C398.3,100.6,398.3,100.6,398.3,100.6C398.3,100.6,398.3,100.6,398.3,100.6z M398.3,107.8c0,0-0.3,0-0.3,0v-0.2c0,0,0.1,0,0.1,0
			c-1.9,0-3.4-1.6-3.4-3.5c0-1.9,1.6-3.9,3.5-3.9c0,0,0-0.4,0-0.4h0c1.9,0,3.4,2.1,3.4,4C401.7,105.7,400.2,107.8,398.3,107.8z
			 M443.4,60.1c-1.9,0-3.5-1.6-3.5-3.5c0-2,1.6-3.5,3.5-3.5c1.9,0,3.4,1.5,3.4,3.5C446.9,58.5,445.3,60.1,443.4,60.1z"/>
	</g>
</g>
</svg>
